<svg width="56" height="56" viewBox="0 0 56 56" fill="none" xmlns="http://www.w3.org/2000/svg">
<g filter="url(#filter0_d_61385_216)">
<rect x="4" width="48" height="48" fill="#323238"/>
<g clip-path="url(#clip0_61385_216)">
<path d="M26.724 35.9999C25.617 35.9999 24.324 35.9939 23.048 35.9209C21.1811 35.9629 19.3729 35.2669 18.016 33.9839C16.7328 32.6275 16.0367 30.8196 16.079 28.9529C16 27.5099 16 26.0509 16 24.6399C16 24.4265 16 24.2132 16 23.9999C16 23.7865 16 23.5732 16 23.3599C16 21.9489 16 20.4899 16.079 19.0479C16.037 17.1809 16.733 15.3728 18.016 14.0159C19.3729 12.7329 21.1811 12.0369 23.048 12.0789C24.328 12.0059 25.617 11.9999 26.724 11.9999H29.277C30.384 11.9999 31.677 12.0059 32.954 12.0789C34.8207 12.0366 36.6286 12.7327 37.985 14.0159C39.268 15.3728 39.964 17.1809 39.922 19.0479C40 20.4899 40 21.9489 40 23.3609C40 23.5742 40 23.7875 40 24.0009C40 24.2142 40 24.4272 40 24.6399C40 26.0509 40 27.5099 39.921 28.9539C39.9633 30.8206 39.2672 32.6285 37.984 33.9849C36.6276 35.2681 34.8197 35.9642 32.953 35.9219C31.672 35.9949 30.383 36.0009 29.276 36.0009L26.724 35.9999Z" fill="white"/>
<path d="M33.6061 18.7885C33.8426 18.9465 34.1206 19.0308 34.405 19.0308L34.406 19.0318C34.7873 19.0313 35.1528 18.8795 35.4223 18.6097C35.6917 18.3399 35.843 17.9741 35.843 17.5928C35.843 17.3084 35.7587 17.0304 35.6007 16.7939C35.4427 16.5575 35.2181 16.3731 34.9553 16.2643C34.6926 16.1555 34.4034 16.127 34.1245 16.1825C33.8456 16.238 33.5893 16.3749 33.3882 16.576C33.1871 16.7771 33.0502 17.0334 32.9947 17.3123C32.9392 17.5913 32.9677 17.8804 33.0765 18.1431C33.1853 18.4059 33.3697 18.6305 33.6061 18.7885Z" fill="#323238"/>
<path fill-rule="evenodd" clip-rule="evenodd" d="M28.0003 30.1556C26.7828 30.1554 25.5927 29.7942 24.5805 29.1176C23.5683 28.4411 22.7794 27.4796 22.3137 26.3547C21.8479 25.2298 21.7261 23.9921 21.9637 22.798C22.2014 21.6039 22.7878 20.5071 23.6487 19.6463C24.5097 18.7854 25.6066 18.1992 26.8007 17.9618C27.9949 17.7243 29.2326 17.8463 30.3574 18.3123C31.4822 18.7782 32.4436 19.5673 33.1199 20.5796C33.7963 21.5919 34.1573 22.7821 34.1573 23.9996C34.1558 25.632 33.5066 27.1972 32.3522 28.3515C31.1979 29.5058 29.6328 30.154 28.0003 30.1556ZM28.0003 20.0001C27.2092 20.0001 26.4358 20.2347 25.778 20.6742C25.1202 21.1137 24.6075 21.7385 24.3048 22.4694C24.002 23.2003 23.9228 24.0045 24.0771 24.7805C24.2315 25.5564 24.6124 26.2691 25.1719 26.8285C25.7313 27.3879 26.444 27.7689 27.2199 27.9232C27.9958 28.0776 28.8001 27.9984 29.531 27.6956C30.2619 27.3929 30.8866 26.8802 31.3262 26.2224C31.7657 25.5646 32.0003 24.7912 32.0003 24.0001C32.0003 22.9392 31.5789 21.9218 30.8287 21.1717C30.0786 20.4215 29.0612 20.0001 28.0003 20.0001Z" fill="#323238"/>
</g>
</g>
<defs>
<filter id="filter0_d_61385_216" x="0" y="0" width="56" height="56" filterUnits="userSpaceOnUse" color-interpolation-filters="sRGB">
<feFlood flood-opacity="0" result="BackgroundImageFix"/>
<feColorMatrix in="SourceAlpha" type="matrix" values="0 0 0 0 0 0 0 0 0 0 0 0 0 0 0 0 0 0 127 0" result="hardAlpha"/>
<feOffset dy="4"/>
<feGaussianBlur stdDeviation="2"/>
<feComposite in2="hardAlpha" operator="out"/>
<feColorMatrix type="matrix" values="0 0 0 0 0 0 0 0 0 0 0 0 0 0 0 0 0 0 0.25 0"/>
<feBlend mode="normal" in2="BackgroundImageFix" result="effect1_dropShadow_61385_216"/>
<feBlend mode="normal" in="SourceGraphic" in2="effect1_dropShadow_61385_216" result="shape"/>
</filter>
<clipPath id="clip0_61385_216">
<rect width="24" height="24" fill="white" transform="translate(16 11.9999)"/>
</clipPath>
</defs>
</svg>
