<svg width="375" height="812" viewBox="0 0 375 812" fill="none" xmlns="http://www.w3.org/2000/svg">
<g clip-path="url(#clip0_61385_181)">
<rect width="375" height="812" fill="#202024"/>
<circle cx="278" cy="99" r="300" transform="rotate(-180 278 99)" fill="url(#paint0_radial_61385_181)"/>
<circle cx="98" cy="99" r="300" transform="rotate(-180 98 99)" fill="url(#paint1_radial_61385_181)"/>
<mask id="mask0_61385_181" style="mask-type:alpha" maskUnits="userSpaceOnUse" x="0" y="0" width="375" height="812">
<rect width="375" height="812" fill="#202024"/>
</mask>
<g mask="url(#mask0_61385_181)">
<path d="M375.045 220.587V-258.213L187.522 -366L0 -258.213V220.587L187.522 328.38L375.045 220.587Z" fill="url(#paint2_linear_61385_181)"/>
<g style="mix-blend-mode:luminosity" opacity="0.4">
<path d="M2.00008 103.796V211.201L95.2909 264.908L188.582 211.201V103.796L95.2909 50.0892L2.00008 103.796Z" fill="url(#paint3_linear_61385_181)"/>
<path d="M2.00008 -3.61323V103.791L95.2909 157.498L188.582 103.791V-3.61323L95.2909 -57.3205L2.00008 -3.61323Z" fill="url(#paint4_linear_61385_181)"/>
<path d="M281.873 -57.2928V50.1116L188.582 103.819L95.2909 50.1116V-57.2928L188.582 -111L281.873 -57.2928Z" fill="url(#paint5_linear_61385_181)"/>
<path d="M188.582 211.2V103.796L281.873 50.0888L375.163 103.796V211.2L281.873 264.908L188.582 211.2Z" fill="url(#paint6_linear_61385_181)"/>
<path d="M375.163 -3.61323V103.791L281.873 157.498L188.582 103.791V-3.61323L281.873 -57.3205L375.163 -3.61323Z" fill="url(#paint7_linear_61385_181)"/>
<path d="M281.873 264.931V157.526L188.582 103.819L95.2909 157.526L95.2909 264.931L188.582 318.638L281.873 264.931Z" fill="url(#paint8_linear_61385_181)"/>
</g>
</g>
</g>
<defs>
<radialGradient id="paint0_radial_61385_181" cx="0" cy="0" r="1" gradientUnits="userSpaceOnUse" gradientTransform="translate(278 99) rotate(90) scale(300)">
<stop stop-color="#FFC323"/>
<stop offset="1" stop-color="#121214" stop-opacity="0"/>
</radialGradient>
<radialGradient id="paint1_radial_61385_181" cx="0" cy="0" r="1" gradientUnits="userSpaceOnUse" gradientTransform="translate(98 99) rotate(90) scale(300)">
<stop stop-color="#FF3D6E"/>
<stop offset="1" stop-color="#121214" stop-opacity="0"/>
</radialGradient>
<linearGradient id="paint2_linear_61385_181" x1="-67.905" y1="111.425" x2="436.159" y2="284.844" gradientUnits="userSpaceOnUse">
<stop stop-color="#FF008E"/>
<stop offset="1" stop-color="#FFCD1E"/>
</linearGradient>
<linearGradient id="paint3_linear_61385_181" x1="95.2909" y1="259.968" x2="2.40178" y2="101.45" gradientUnits="userSpaceOnUse">
<stop stop-color="#8257E5"/>
<stop offset="1" stop-color="#FF008E" stop-opacity="0"/>
</linearGradient>
<linearGradient id="paint4_linear_61385_181" x1="95.2909" y1="152.559" x2="2.40176" y2="-5.95928" gradientUnits="userSpaceOnUse">
<stop stop-color="#8257E5"/>
<stop offset="1" stop-color="#FF008E" stop-opacity="0"/>
</linearGradient>
<linearGradient id="paint5_linear_61385_181" x1="95.2909" y1="-63.329" x2="281.585" y2="49.0891" gradientUnits="userSpaceOnUse">
<stop stop-color="#FF008E" stop-opacity="0"/>
<stop offset="1" stop-color="#FFCD1E"/>
</linearGradient>
<linearGradient id="paint6_linear_61385_181" x1="375.163" y1="217.237" x2="188.87" y2="104.819" gradientUnits="userSpaceOnUse">
<stop stop-color="#FF008E" stop-opacity="0"/>
<stop offset="1" stop-color="#FFCD1E"/>
</linearGradient>
<linearGradient id="paint7_linear_61385_181" x1="281.873" y1="152.559" x2="374.762" y2="-5.95928" gradientUnits="userSpaceOnUse">
<stop stop-color="#8257E5"/>
<stop offset="1" stop-color="#FF008E" stop-opacity="0"/>
</linearGradient>
<linearGradient id="paint8_linear_61385_181" x1="188.582" y1="108.759" x2="281.471" y2="267.277" gradientUnits="userSpaceOnUse">
<stop stop-color="#8257E5"/>
<stop offset="1" stop-color="#FF008E" stop-opacity="0"/>
</linearGradient>
<clipPath id="clip0_61385_181">
<rect width="375" height="812" fill="white"/>
</clipPath>
</defs>
</svg>
